<?xml version="1.0" encoding="UTF-8"?>
<!DOCTYPE svg PUBLIC "-//W3C//DTD SVG 1.1//EN" "http://www.w3.org/Graphics/SVG/1.1/DTD/svg11.dtd">
<svg xmlns="http://www.w3.org/2000/svg" version="1.1" width="512px" height="512px" style="shape-rendering:geometricPrecision; text-rendering:geometricPrecision; image-rendering:optimizeQuality; fill-rule:evenodd; clip-rule:evenodd" xmlns:xlink="http://www.w3.org/1999/xlink">
<g><path style="opacity:0.932" fill="#000000" d="M 194.5,3.5 C 208.168,3.7783 220.502,7.94497 231.5,16C 239.348,24.0145 247.348,31.8479 255.5,39.5C 263.652,31.8479 271.652,24.0145 279.5,16C 305.168,-0.868723 330.168,0.131277 354.5,19C 375.108,41.764 377.941,66.5973 363,93.5C 329.195,128.306 295.028,162.806 260.5,197C 257.167,199 253.833,199 250.5,197C 217.333,163.833 184.167,130.667 151,97.5C 135.168,74.6561 134.501,51.3228 149,27.5C 160.513,12.4945 175.679,4.49446 194.5,3.5 Z M 187.5,22.5 C 197.788,21.243 207.455,23.0764 216.5,28C 227.471,37.9699 238.137,48.3032 248.5,59C 253.167,62.3333 257.833,62.3333 262.5,59C 272.863,48.3032 283.529,37.9699 294.5,28C 315.481,17.5558 333.314,21.3891 348,39.5C 357.061,55.2747 356.394,70.6081 346,85.5C 315.986,115.68 285.82,145.68 255.5,175.5C 225.18,145.68 195.014,115.68 165,85.5C 151.796,64.1952 154.63,45.3618 173.5,29C 178.137,26.5111 182.804,24.3445 187.5,22.5 Z"/></g>
<g><path style="opacity:0.872" fill="#000000" d="M 99.5,53.5 C 103.695,57.5321 107.361,62.0321 110.5,67C 109.561,68.9439 108.227,70.6106 106.5,72C 103.64,74.3603 100.64,76.527 97.5,78.5C 93.282,74.4487 89.6153,69.9487 86.5,65C 90.8729,61.1572 95.2062,57.3239 99.5,53.5 Z"/></g>
<g><path style="opacity:0.871" fill="#000000" d="M 410.5,54.5 C 415.927,57.4002 420.927,61.0669 425.5,65.5C 422.153,70.3417 418.32,74.675 414,78.5C 409.225,75.3961 404.725,71.8961 400.5,68C 403.665,63.3407 406.998,58.8407 410.5,54.5 Z"/></g>
<g><path style="opacity:0.856" fill="#000000" d="M 73.5,76.5 C 78.1456,80.479 82.479,84.8123 86.5,89.5C 82.8333,93.8333 78.8333,97.8333 74.5,101.5C 71.0252,99.1924 67.6919,96.6924 64.5,94C 63.1007,92.9384 62.1007,91.605 61.5,90C 65.3236,85.3431 69.3236,80.8431 73.5,76.5 Z"/></g>
<g><path style="opacity:0.857" fill="#000000" d="M 436.5,77.5 C 441.937,81.1023 446.604,85.6023 450.5,91C 446,94.8333 441.5,98.6667 437,102.5C 432.786,98.6216 428.952,94.4549 425.5,90C 428.99,85.6768 432.657,81.5102 436.5,77.5 Z"/></g>
<g><path style="opacity:0.871" fill="#000000" d="M 49.5,103.5 C 55.0117,106.427 60.0117,110.094 64.5,114.5C 61.5225,119.469 58.1892,124.135 54.5,128.5C 49.3503,125.5 44.6837,122 40.5,118C 43.3902,113.043 46.3902,108.21 49.5,103.5 Z"/></g>
<g><path style="opacity:0.872" fill="#000000" d="M 459.5,104.5 C 461.371,104.859 462.871,105.859 464,107.5C 466.5,111.333 469,115.167 471.5,119C 466.927,122.575 462.093,125.742 457,128.5C 453.194,124.345 449.694,119.845 446.5,115C 450.903,111.481 455.237,107.981 459.5,104.5 Z"/></g>
<g><path style="opacity:0.869" fill="#000000" d="M 30.5,133.5 C 35.2234,135.359 39.8901,137.526 44.5,140C 45.3567,140.689 46.0233,141.522 46.5,142.5C 44,147.5 41.5,152.5 39,157.5C 33.2963,155.065 27.7963,152.231 22.5,149C 25.3072,143.885 27.9739,138.718 30.5,133.5 Z"/></g>
<g><path style="opacity:0.867" fill="#000000" d="M 479.5,133.5 C 482.979,138.447 485.979,143.78 488.5,149.5C 483.665,152.625 478.499,155.292 473,157.5C 469.673,152.853 466.84,147.853 464.5,142.5C 469.398,139.223 474.398,136.223 479.5,133.5 Z"/></g>
<g><path style="opacity:0.876" fill="#000000" d="M 15.5,165.5 C 21.2368,166.968 26.9034,168.635 32.5,170.5C 31.5402,176.213 29.8735,181.713 27.5,187C 21.8194,186.169 16.1528,185.002 10.5,183.5C 11.7627,177.38 13.4293,171.38 15.5,165.5 Z"/></g>
<g><path style="opacity:0.869" fill="#000000" d="M 493.5,165.5 C 494.75,165.577 495.583,166.244 496,167.5C 498.184,172.7 499.517,178.034 500,183.5C 495.029,185.162 490.029,186.828 485,188.5C 482.078,183.757 479.911,178.591 478.5,173C 483.459,170.404 488.459,167.904 493.5,165.5 Z"/></g>
<g><path style="opacity:0.935" fill="#000000" d="M 362.5,180.5 C 366.544,179.958 370.211,180.791 373.5,183C 404.667,214.167 435.833,245.333 467,276.5C 470.184,280.871 470.184,285.205 467,289.5C 450,306.5 433,323.5 416,340.5C 404.957,357.419 393.791,374.253 382.5,391C 388.49,407.355 383.824,419.688 368.5,428C 365.899,428.92 363.232,429.587 360.5,430C 357.833,444.667 349.167,453.333 334.5,456C 332.068,470.265 323.735,478.765 309.5,481.5C 302.696,504.236 288.363,511.402 266.5,503C 257.319,493.652 247.986,484.486 238.5,475.5C 233.938,480.232 228.938,484.398 223.5,488C 214.871,490.503 206.538,489.836 198.5,486C 169.333,458.167 140.833,429.667 113,400.5C 106.435,389.052 107.269,378.218 115.5,368C 108.878,359.256 102.378,350.422 96,341.5C 78.6667,324.167 61.3333,306.833 44,289.5C 40.6667,285.167 40.6667,280.833 44,276.5C 72.1667,248.333 100.333,220.167 128.5,192C 132.923,187.966 137.59,187.633 142.5,191C 159.167,207.667 175.833,224.333 192.5,241C 206.5,246.333 220.5,251.667 234.5,257C 246.167,257.667 257.833,257.667 269.5,257C 282.5,249.333 295.5,241.667 308.5,234C 326.395,215.938 344.395,198.104 362.5,180.5 Z M 365.5,202.5 C 393.249,228.748 420.583,255.581 447.5,283C 434.667,295.833 421.833,308.667 409,321.5C 381.986,294.653 355.153,267.653 328.5,240.5C 340.855,227.813 353.188,215.146 365.5,202.5 Z M 135.5,210.5 C 148.632,223.131 161.632,235.965 174.5,249C 150.333,273.167 126.167,297.333 102,321.5C 89.1667,308.667 76.3333,295.833 63.5,283C 87.7016,258.965 111.702,234.799 135.5,210.5 Z M 312.5,252.5 C 341.249,279.748 369.583,307.581 397.5,336C 388.21,349.413 379.043,362.913 370,376.5C 345.984,352.14 320.484,329.64 293.5,309C 282.5,308.333 271.5,308.333 260.5,309C 251.5,312 242.5,315 233.5,318C 224.833,325 216.167,332 207.5,339C 200.26,343.206 194.093,342.039 189,335.5C 186.6,329.764 187.267,324.431 191,319.5C 207.167,305.333 223.333,291.167 239.5,277C 252.127,275.958 264.794,274.958 277.5,274C 289.231,266.808 300.897,259.641 312.5,252.5 Z M 189.5,259.5 C 199.211,263.237 208.878,267.07 218.5,271C 205.796,282.706 192.796,294.04 179.5,305C 164.178,322.016 164.845,338.349 181.5,354C 194.345,361.56 207.012,361.226 219.5,353C 227.167,346.667 234.833,340.333 242.5,334C 249.5,331.667 256.5,329.333 263.5,327C 271.167,326.333 278.833,326.333 286.5,327C 314.79,348.612 341.29,372.445 366,398.5C 368.062,405.699 365.395,410.366 358,412.5C 356.184,411.671 354.351,410.837 352.5,410C 345.167,402.667 337.833,395.333 330.5,388C 325.338,390.818 321.004,394.818 317.5,400C 324.623,408.124 332.123,415.958 340,423.5C 342.868,429.46 341.368,433.96 335.5,437C 333.5,437.667 331.5,437.667 329.5,437C 321.197,429.698 313.197,422.031 305.5,414C 304.5,413.333 303.5,413.333 302.5,414C 298.651,417.682 294.984,421.515 291.5,425.5C 298.819,433.319 306.319,440.986 314,448.5C 317.493,456.184 314.993,461.184 306.5,463.5C 305.205,462.902 303.872,462.402 302.5,462C 294.833,454.333 287.167,446.667 279.5,439C 274.338,441.818 270.004,445.818 266.5,451C 274.321,459.488 282.154,467.988 290,476.5C 290.88,483.405 287.88,487.405 281,488.5C 278.456,488.616 276.289,487.783 274.5,486C 266,477.5 257.5,469 249,460.5C 249.983,441.836 241.483,430.336 223.5,426C 220.773,411.438 212.107,403.271 197.5,401.5C 195.841,385.841 187.174,377.174 171.5,375.5C 169.779,359.448 160.779,350.781 144.5,349.5C 139.004,349.795 134.004,351.461 129.5,354.5C 124.15,348.478 119.15,342.145 114.5,335.5C 139.521,310.146 164.521,284.812 189.5,259.5 Z M 142.5,367.5 C 150.761,368.033 154.261,372.366 153,380.5C 147.699,386.802 142.032,392.802 136,398.5C 131.446,395.123 128.28,390.789 126.5,385.5C 130.084,377.918 135.417,371.918 142.5,367.5 Z M 167.5,393.5 C 175.986,393.151 179.82,397.151 179,405.5C 173.684,411.983 167.851,417.983 161.5,423.5C 157.167,419.833 153.167,415.833 149.5,411.5C 155.215,405.119 161.215,399.119 167.5,393.5 Z M 195.5,418.5 C 203.242,420.332 206.075,424.998 204,432.5C 198.333,438.167 192.667,443.833 187,449.5C 182.833,445.333 178.667,441.167 174.5,437C 180.827,429.825 187.827,423.659 195.5,418.5 Z M 218.5,444.5 C 227.423,444.352 231.257,448.685 230,457.5C 225.5,462 221,466.5 216.5,471C 209.48,471.654 204.147,468.821 200.5,462.5C 206.215,456.119 212.215,450.119 218.5,444.5 Z"/></g>
<g><path style="opacity:0.89" fill="#000000" d="M 5.5,198.5 C 11.5602,199.849 17.5602,201.516 23.5,203.5C 21.986,208.737 20.986,214.07 20.5,219.5C 14.4742,219.051 8.47422,218.385 2.5,217.5C 3.3708,211.146 4.3708,204.813 5.5,198.5 Z"/></g>
<g><path style="opacity:0.885" fill="#000000" d="M 503.5,199.5 C 504.75,199.577 505.583,200.244 506,201.5C 507.16,207.129 507.993,212.796 508.5,218.5C 502.474,218.949 496.474,219.615 490.5,220.5C 490.202,214.846 489.202,209.346 487.5,204C 492.939,202.477 498.273,200.977 503.5,199.5 Z"/></g>
<g><path style="opacity:0.896" fill="#000000" d="M -0.5,233.5 C 5.51121,234.107 11.5112,234.774 17.5,235.5C 17.5,241.167 17.5,246.833 17.5,252.5C 11.5,252.5 5.5,252.5 -0.5,252.5C -0.5,246.167 -0.5,239.833 -0.5,233.5 Z"/></g>
<g><path style="opacity:0.876" fill="#000000" d="M 511.5,234.5 C 511.5,240.833 511.5,247.167 511.5,253.5C 505.5,253.5 499.5,253.5 493.5,253.5C 493.5,247.5 493.5,241.5 493.5,235.5C 499.509,235.299 505.509,234.966 511.5,234.5 Z"/></g>
<g><path style="opacity:0.885" fill="#000000" d="M -0.5,268.5 C 5.5,268.5 11.5,268.5 17.5,268.5C 17.7599,274.172 18.0932,279.839 18.5,285.5C 12.5315,286.385 6.53149,287.052 0.5,287.5C 0.8064,284.615 0.473067,281.948 -0.5,279.5C -0.5,275.833 -0.5,272.167 -0.5,268.5 Z"/></g>
<g><path style="opacity:0.893" fill="#000000" d="M 511.5,269.5 C 511.5,272.833 511.5,276.167 511.5,279.5C 510.523,282.287 510.19,285.287 510.5,288.5C 504.531,287.615 498.531,286.948 492.5,286.5C 492.833,280.5 493.167,274.5 493.5,268.5C 499.455,269.363 505.455,269.697 511.5,269.5 Z"/></g>
<g><path style="opacity:0.885" fill="#000000" d="M 19.5,300.5 C 20.1174,300.611 20.6174,300.944 21,301.5C 22.3615,307.141 23.5281,312.808 24.5,318.5C 18.8514,319.287 13.3514,320.621 8,322.5C 5.68034,316.41 4.18034,310.077 3.5,303.5C 9.09472,303.246 14.4281,302.246 19.5,300.5 Z"/></g>
<g><path style="opacity:0.883" fill="#000000" d="M 489.5,301.5 C 495.499,302.5 501.499,303.5 507.5,304.5C 506.528,310.192 505.361,315.859 504,321.5C 498.221,321.814 492.554,320.814 487,318.5C 487.37,312.806 488.203,307.139 489.5,301.5 Z"/></g>
<g><path style="opacity:0.872" fill="#000000" d="M 27.5,332.5 C 28.7498,332.577 29.5831,333.244 30,334.5C 31.1365,338.243 32.4698,341.91 34,345.5C 34.6667,346.833 34.6667,348.167 34,349.5C 29.2241,351.593 24.3907,353.593 19.5,355.5C 18.2011,354.91 17.3678,353.91 17,352.5C 14.9054,347.653 13.4054,342.653 12.5,337.5C 17.7841,336.405 22.7841,334.739 27.5,332.5 Z"/></g>
<g><path style="opacity:0.877" fill="#000000" d="M 481.5,333.5 C 487.097,335.365 492.763,337.032 498.5,338.5C 496.952,344.813 494.618,350.813 491.5,356.5C 486.004,354.282 480.671,351.782 475.5,349C 477.645,343.878 479.645,338.712 481.5,333.5 Z"/></g>
<g><path style="opacity:0.871" fill="#000000" d="M 39.5,363.5 C 40.675,363.281 41.675,363.614 42.5,364.5C 44.7133,369.094 47.0466,373.594 49.5,378C 44.8672,381.655 39.8672,384.822 34.5,387.5C 31.5,382.167 28.5,376.833 25.5,371.5C 30.2293,368.806 34.896,366.14 39.5,363.5 Z"/></g>
<g><path style="opacity:0.865" fill="#000000" d="M 468.5,363.5 C 474.423,365.795 480.09,368.628 485.5,372C 482.447,377.279 479.281,382.446 476,387.5C 471.843,385.35 467.677,383.184 463.5,381C 462.426,380.261 461.759,379.261 461.5,378C 464.237,373.359 466.571,368.525 468.5,363.5 Z"/></g>
<g><path style="opacity:0.864" fill="#000000" d="M 57.5,391.5 C 61.6293,395.734 65.2959,400.401 68.5,405.5C 63.8333,409.167 59.1667,412.833 54.5,416.5C 50.6584,411.822 46.9917,406.988 43.5,402C 48.025,398.245 52.6917,394.745 57.5,391.5 Z"/></g>
<g><path style="opacity:0.864" fill="#000000" d="M 451.5,392.5 C 452.552,392.351 453.552,392.517 454.5,393C 458.833,396.167 463.167,399.333 467.5,402.5C 463.667,407.5 459.833,412.5 456,417.5C 451.326,413.657 446.826,409.657 442.5,405.5C 445.757,401.312 448.757,396.979 451.5,392.5 Z"/></g>
<g><path style="opacity:0.879" fill="#000000" d="M 77.5,417.5 C 82.6035,420.768 86.9368,424.935 90.5,430C 86.2902,434.042 82.2902,438.208 78.5,442.5C 73.8333,438.5 69.5,434.167 65.5,429.5C 69.2148,425.119 73.2148,421.119 77.5,417.5 Z"/></g>
<g><path style="opacity:0.871" fill="#000000" d="M 430.5,418.5 C 436.428,420.904 441.428,424.738 445.5,430C 440.985,434.348 436.651,438.848 432.5,443.5C 428.528,439.193 424.528,434.859 420.5,430.5C 423.48,426.189 426.813,422.189 430.5,418.5 Z"/></g>
<g><path style="opacity:0.868" fill="#000000" d="M 101.5,440.5 C 106.727,443.387 111.394,447.054 115.5,451.5C 112.243,456.346 108.743,461.012 105,465.5C 99.8936,462.028 95.0603,458.194 90.5,454C 94.2946,449.561 97.9613,445.061 101.5,440.5 Z"/></g>
<g><path style="opacity:0.869" fill="#000000" d="M 407.5,440.5 C 411.956,444.723 415.956,449.389 419.5,454.5C 415.235,458.638 410.569,462.305 405.5,465.5C 401.844,460.872 398.178,456.206 394.5,451.5C 399.09,448.053 403.423,444.386 407.5,440.5 Z"/></g>
<g><path style="opacity:0.871" fill="#000000" d="M 128.5,459.5 C 133.638,462.237 138.638,465.237 143.5,468.5C 141.333,472.833 139.167,477.167 137,481.5C 136.261,482.574 135.261,483.241 134,483.5C 128.494,481.177 123.661,478.01 119.5,474C 122.379,469.071 125.379,464.238 128.5,459.5 Z"/></g>
<g><path style="opacity:0.866" fill="#000000" d="M 379.5,460.5 C 380.822,460.33 381.989,460.663 383,461.5C 385.958,465.916 388.792,470.416 391.5,475C 386.332,478.419 380.998,481.585 375.5,484.5C 372.626,479.251 369.626,474.085 366.5,469C 370.898,466.143 375.232,463.309 379.5,460.5 Z"/></g>
<g><path style="opacity:0.875" fill="#000000" d="M 157.5,475.5 C 163.235,477.072 168.568,479.406 173.5,482.5C 171.919,488.271 169.586,493.605 166.5,498.5C 161.354,495.924 156.021,493.924 150.5,492.5C 152.001,486.497 154.334,480.831 157.5,475.5 Z"/></g>
<g><path style="opacity:0.871" fill="#000000" d="M 350.5,475.5 C 351.675,475.281 352.675,475.614 353.5,476.5C 355.503,481.172 357.503,485.838 359.5,490.5C 359.167,491.167 358.833,491.833 358.5,492.5C 353.724,494.638 348.89,496.638 344,498.5C 342.523,497.556 341.523,496.223 341,494.5C 339.795,490.384 338.295,486.384 336.5,482.5C 341.235,480.154 345.902,477.82 350.5,475.5 Z"/></g>
</svg>
